<?xml version="1.0" standalone="no"?>
<!DOCTYPE svg PUBLIC "-//W3C//DTD SVG 20010904//EN"
 "http://www.w3.org/TR/2001/REC-SVG-20010904/DTD/svg10.dtd">
<svg version="1.0" xmlns="http://www.w3.org/2000/svg"
 width="64.000000pt" height="64.000000pt" viewBox="0 0 64.000000 64.000000"
 preserveAspectRatio="xMidYMid meet">

<g transform="translate(0.000000,64.000000) scale(0.100000,-0.100000)"
fill="#000000" stroke="none">
<path d="M280 503 c-1 -20 -74 -59 -103 -54 -22 3 -57 -26 -57 -47 0 -9 7 -24
17 -34 15 -17 15 -18 -10 -18 -25 0 -27 -3 -27 -45 0 -43 1 -45 29 -45 35 0
46 -13 26 -30 -20 -17 -19 -43 3 -63 21 -19 43 -22 59 -6 5 5 22 7 37 3 19 -4
26 -13 26 -30 0 -22 4 -24 45 -24 41 0 45 2 45 24 0 28 35 45 53 27 16 -16 42
-13 60 7 21 23 22 46 2 62 -20 17 -9 30 26 30 28 0 29 2 29 45 0 42 -2 45 -27
45 -25 0 -25 1 -10 18 10 10 17 25 17 34 0 22 -35 50 -57 46 -28 -4 -93 33
-93 54 0 15 -9 18 -45 18 -36 0 -45 -3 -45 -17z m80 -10 c1 -25 84 -75 99 -60
8 8 17 5 33 -11 l22 -22 -22 -23 c-25 -26 -20 -37 15 -37 20 0 23 -5 23 -35 0
-32 -2 -35 -30 -35 -38 0 -49 -24 -24 -51 17 -19 17 -20 -4 -41 -20 -21 -22
-21 -40 -4 -26 23 -72 4 -72 -31 0 -20 -5 -23 -35 -23 -30 0 -35 3 -35 23 0
33 -56 54 -82 30 -18 -16 -20 -15 -40 5 -21 21 -21 22 -4 41 25 27 14 51 -24
51 -28 0 -30 3 -30 35 0 30 3 35 23 35 35 0 40 11 15 37 l-22 23 22 22 c16 17
25 19 33 11 9 -9 21 -6 48 13 19 13 41 24 48 24 7 0 13 9 13 20 0 16 7 20 35
20 27 0 35 -4 35 -17z"/>
<path d="M286 344 c-31 -30 -9 -84 34 -84 24 0 50 26 50 50 0 24 -26 50 -50
50 -10 0 -26 -7 -34 -16z m58 -10 c9 -8 16 -19 16 -24 0 -11 -29 -40 -40 -40
-11 0 -40 29 -40 40 0 11 29 40 40 40 5 0 16 -7 24 -16z"/>
</g>
</svg>
